<?xml version="1.0" encoding="utf-8"?>
<!-- Generator: Adobe Illustrator 16.0.0, SVG Export Plug-In . SVG Version: 6.00 Build 0)  -->
<!DOCTYPE svg PUBLIC "-//W3C//DTD SVG 1.1//EN" "http://www.w3.org/Graphics/SVG/1.1/DTD/svg11.dtd">
<svg version="1.1" xmlns="http://www.w3.org/2000/svg" xmlns:xlink="http://www.w3.org/1999/xlink" x="0px" y="0px" width="400px"
	 height="130px" viewBox="0 0 400 130" enable-background="new 0 0 400 130" xml:space="preserve">
<g id="Layer_1" opacity="0.2">
	<path d="M62.995,69.874c-0.449,3.705-0.639,7.142-0.567,10.313c0.075,3.172,0.688,5.982,1.85,8.426
		c1.158,2.447,3.213,4.183,6.159,5.21c1.965,0.647,3.801,0.513,5.507-0.408c1.707-0.92,3.292-2.263,4.763-4.028
		c1.468-1.766,2.783-3.814,3.947-6.151c1.162-2.335,2.183-4.593,3.062-6.777c0.876-2.182,1.609-4.177,2.193-5.984
		c0.583-1.807,1-3.039,1.254-3.693c0.379-0.983,0.335-1.819-0.131-2.508c-0.467-0.689-1.057-1.134-1.767-1.334
		c-0.713-0.2-1.465-0.124-2.256,0.227c-0.793,0.354-1.381,1.077-1.765,2.168c-0.28,1.211-0.861,2.961-1.743,5.255
		c-0.885,2.293-1.824,4.583-2.817,6.872c-0.996,2.288-2.003,4.271-3.023,5.945c-1.022,1.677-1.863,2.497-2.527,2.466
		c-0.996-0.047-1.586-1.076-1.768-3.085c-0.184-2.01-0.155-4.398,0.086-7.167c0.239-2.767,0.624-5.641,1.153-8.618
		c0.527-2.977,1.059-5.454,1.596-7.43c0.416-1.758,0.042-3.276-1.117-4.556c-1.162-1.277-2.564-2.065-4.213-2.367
		c-1.649-0.299-3.189,0.017-4.619,0.95c-1.431,0.933-2.207,2.731-2.332,5.394C63.754,62.546,63.444,66.171,62.995,69.874z
		 M79.832,31.809c-2.497-1.173-5.36-1.558-8.594-1.156c-3.236,0.405-5.861,1.42-7.876,3.047c-2.015,1.63-2.859,3.675-2.533,6.135
		c0.223,2.345,1.641,4.025,4.254,5.037c2.613,1.015,5.31,1.418,8.092,1.216c1.447-0.153,2.85-0.476,4.204-0.969
		c1.354-0.491,2.548-1.131,3.583-1.916s1.826-1.691,2.373-2.723c0.547-1.03,0.738-2.159,0.575-3.392
		C83.686,34.743,82.326,32.985,79.832,31.809z"/>
	<path d="M84.966,69.493c0.066,4.452,0.6,8.479,1.595,12.083c0.995,3.607,2.492,6.539,4.493,8.801
		c1.999,2.262,4.554,3.357,7.663,3.28c2.438,0.006,4.61-0.783,6.514-2.361c1.903-1.578,3.579-3.61,5.026-6.101
		c1.447-2.488,2.682-5.21,3.709-8.164c1.025-2.954,1.853-5.805,2.48-8.555c0.627-2.749,1.1-5.173,1.422-7.271
		c0.319-2.096,0.55-3.476,0.693-4.137c0.161-1.102-0.104-1.949-0.795-2.539c-0.695-0.588-1.483-0.904-2.367-0.945
		c-0.887-0.042-1.755,0.196-2.611,0.71c-0.856,0.518-1.31,1.33-1.362,2.438c-0.057,1.222-0.382,3.375-0.968,6.459
		c-0.589,3.086-1.318,6.22-2.188,9.403c-0.872,3.185-1.835,6.001-2.891,8.453c-1.058,2.452-2.084,3.654-3.08,3.607
		c-0.887-0.042-1.722-1.137-2.507-3.287c-0.788-2.148-1.354-4.817-1.704-8.002c-0.35-3.185-0.468-6.581-0.354-10.19
		c0.112-3.606,0.684-6.944,1.717-10.009c0.267-0.988-0.252-1.706-1.562-2.159c-1.309-0.45-2.799-0.604-4.469-0.461
		c-1.67,0.146-3.275,0.68-4.815,1.607c-1.541,0.928-2.412,2.333-2.609,4.213C85.242,60.667,84.899,65.044,84.966,69.493z"/>
	<path d="M141.037,67.453c0.364-1.976,0.357-4-0.015-6.074c-0.375-2.071-1.166-4.003-2.373-5.792
		c-1.209-1.789-2.823-2.938-4.847-3.449c-2.108-0.532-4.293,0.042-6.553,1.718c-2.262,1.678-4.366,3.979-6.313,6.904
		c-1.949,2.926-3.576,6.179-4.882,9.76s-2.068,7.054-2.29,10.415c-0.222,3.362,0.245,6.312,1.4,8.851
		c1.153,2.538,3.247,4.192,6.282,4.958c2.529,0.639,4.964,0.667,7.308,0.091c2.342-0.579,4.521-1.489,6.54-2.733
		c2.016-1.245,3.845-2.715,5.484-4.416c1.639-1.698,3.092-3.377,4.363-5.036c1.269-1.656,2.3-3.173,3.097-4.546
		c0.793-1.372,1.338-2.292,1.636-2.757c0.36-0.718,0.429-1.352,0.211-1.902c-0.221-0.549-0.572-0.931-1.057-1.144
		c-0.485-0.211-1.034-0.261-1.645-0.145c-0.613,0.115-1.141,0.521-1.585,1.218c-0.319,0.549-0.938,1.405-1.857,2.566
		c-0.922,1.163-2.001,2.418-3.237,3.769c-1.238,1.352-2.619,2.734-4.14,4.148c-1.523,1.415-3.034,2.606-4.533,3.576
		c-1.501,0.97-2.973,1.656-4.418,2.055c-1.446,0.4-2.675,0.292-3.685-0.323c-0.78-0.466-1.285-1.222-1.512-2.27
		c-0.23-1.046-0.28-2.273-0.148-3.679c0.129-1.405,0.428-2.948,0.898-4.629c0.467-1.68,1.053-3.376,1.753-5.087
		c0.947,0.151,2.054,0.295,3.32,0.434c1.264,0.14,2.534,0.167,3.812,0.085c1.275-0.083,2.495-0.292,3.655-0.628
		c1.161-0.335,2.194-0.884,3.105-1.645C139.929,70.861,140.672,69.43,141.037,67.453z M134.573,59.482
		c0.124,0.752,0.122,1.649-0.007,2.696c-0.129,1.046-0.36,2.046-0.688,2.996c-0.331,0.952-0.728,1.637-1.192,2.06
		c-0.594,0.571-1.379,0.845-2.359,0.821c-0.982-0.022-1.936-0.151-2.862-0.385c1.271-2.556,2.484-4.701,3.639-6.432
		c1.153-1.732,2.057-2.65,2.712-2.755C134.195,58.398,134.447,58.731,134.573,59.482z"/>
	<path d="M31.875,109.3c2.912,2.056,16.678,2.083,26.658,3.279c9.979,1.196,22.134,2.654,36.469,4.373
		c0.998,0.12,2.175,0.282,3.53,0.492c1.355,0.207,2.659,0.272,3.912,0.196c1.252-0.078,2.34-0.334,3.27-0.769
		c0.927-0.435,1.463-1.237,1.606-2.402c0.154-1.257-0.143-2.407-0.889-3.452c-0.748-1.045-1.69-1.978-2.833-2.798
		c-1.142-0.819-2.369-1.513-3.68-2.08s-2.5-1.006-3.567-1.315c-4.754-1.026-9.422-1.812-14.002-2.361
		c-4.582-0.549-9.115-0.935-13.598-1.152c-4.484-0.22-8.909-0.364-13.271-0.431c-4.365-0.069-8.656-0.174-12.872-0.314
		c0.709-1.28,1.352-2.773,1.93-4.479c0.576-1.706,1.112-3.44,1.604-5.201c0.492-1.761,0.932-3.483,1.323-5.167
		c0.39-1.682,0.712-3.192,0.969-4.526c0.264-2.153,0.67-4.904,1.218-8.252c0.548-3.348,1.232-7.431,2.053-12.248
		c0.819-4.817,1.742-10.463,2.766-16.942c1.022-6.477,2.199-14.006,3.527-22.585c0.232-1.154,0.284-2.514,0.154-4.078
		c-0.132-1.563-0.477-3.062-1.037-4.494c-0.562-1.433-1.31-2.66-2.241-3.682c-0.935-1.021-2.127-1.621-3.578-1.794
		c-0.727-0.087-1.385,0.403-1.975,1.47c-0.592,1.068-1.138,2.526-1.641,4.378c-0.503,1.851-0.974,4.003-1.412,6.453
		c-0.438,2.452-0.828,5.068-1.169,7.848c-0.722,4.375-1.541,9.762-2.463,16.159c-0.922,6.399-1.804,13.029-2.645,19.893
		s-1.527,13.587-2.057,20.167c-0.53,6.581-2.555,15.997-2.555,15.997S28.962,107.244,31.875,109.3z"/>
	<path d="M202.992,71.161c-0.554-1.681-1.563-3.288-3.06-4.76c-1.499-1.47-3.447-2.648-5.855-3.516
		c-2.41-0.868-4.981-1.109-7.611-0.904c-2.745,0.222-4.849,1.02-6.285,2.368c-1.444,1.363-2.283,3.002-2.685,5.215
		c-0.402,2.217-0.377,4.813-0.061,8.036c0.04,0.402,0.084,0.808,0.135,1.217c0.05,0.409,0.105,0.821,0.166,1.236
		c0.03,0.208,0.062,0.416,0.095,0.625c0.017,0.104,0.033,0.209,0.051,0.313c0.017,0.105,0.035,0.21,0.052,0.315
		c0.072,0.42,0.149,0.843,0.232,1.268c0.332,1.699,0.755,3.434,1.287,5.173c1.063,3.484,2.621,6.628,4.857,9.106
		c1.115,1.242,2.429,2.173,3.946,2.779c0.758,0.303,1.566,0.525,2.424,0.668c0.428,0.071,0.869,0.123,1.322,0.155
		c0.227,0.016,0.456,0.027,0.688,0.034s0.467,0.008,0.706,0.005c3.175-0.043,5.999-0.708,8.419-1.897
		c2.419-1.192,4.474-2.616,6.169-4.259c1.693-1.645,3.049-3.402,4.083-5.293c1.035-1.889,1.868-3.686,2.52-5.419
		c0.649-1.73,1.108-3.279,1.377-4.656c0.267-1.375,0.468-2.3,0.595-2.771c0.083-0.709-0.121-1.286-0.614-1.727
		c-0.496-0.438-1.065-0.701-1.708-0.787c-0.643-0.085-1.285-0.017-1.92,0.206c-0.637,0.223-1.042,0.678-1.22,1.37
		c-0.105,0.54-0.405,1.404-0.893,2.594c-0.49,1.192-1.107,2.498-1.85,3.93c-0.746,1.435-1.631,2.934-2.665,4.521
		c-1.035,1.589-2.168,3.005-3.401,4.242c-1.235,1.236-2.578,2.23-4.025,2.951c-1.447,0.724-2.877,0.909-4.26,0.514
		c-1.066-0.294-1.936-0.956-2.614-1.972c-0.681-1.013-1.234-2.244-1.673-3.659c-0.441-1.413-0.767-2.966-0.993-4.621
		c-0.227-1.653-0.361-3.285-0.408-4.884c1.09-0.013,2.35-0.057,3.783-0.134c1.431-0.075,2.82-0.252,4.169-0.529
		c1.347-0.277,2.577-0.657,3.688-1.14c1.111-0.482,1.987-1.129,2.629-1.934C203.396,74.196,203.545,72.847,202.992,71.161
		L202.992,71.161L202.992,71.161L202.992,71.161z M191.655,66.383c0.555,0.493,1.042,1.125,1.457,1.913
		c0.415,0.787,0.681,1.581,0.809,2.368c0.126,0.789,0.036,1.398-0.258,1.809c-0.361,0.551-1.081,0.899-2.155,1.034
		c-1.077,0.137-2.172,0.182-3.29,0.137c0.077-2.214,0.245-3.971,0.564-5.391c0.314-1.415,0.795-2.191,1.469-2.396
		C190.625,65.725,191.098,65.892,191.655,66.383L191.655,66.383L191.655,66.383L191.655,66.383L191.655,66.383z"/>
	<path d="M233.309,65.855c-2.258-2.858-5.564-4.048-9.804-3.732c-2.787,0.202-5.17,1.225-7.074,2.958
		c-1.909,1.737-3.33,3.781-4.293,6.203c-0.963,2.421-1.407,5.019-1.377,7.879c0.034,2.859,0.65,5.617,1.85,8.252
		c1.203,2.635,3.005,4.913,5.441,6.757c2.432,1.851,5.574,2.843,9.384,3.007c2.952,0.082,5.513-0.302,7.67-1.124
		c2.159-0.823,3.99-1.887,5.517-3.205c1.525-1.316,2.797-2.789,3.841-4.444c1.041-1.655,1.926-3.277,2.646-4.875
		s1.286-3.091,1.683-4.465c0.395-1.372,0.697-2.346,0.873-2.877c0.155-0.796,0.005-1.439-0.458-1.92
		c-0.465-0.479-1.024-0.755-1.681-0.827c-0.656-0.07-1.33,0.037-2.013,0.32c-0.687,0.283-1.158,0.823-1.414,1.612
		c-0.247,0.875-0.867,2.381-1.781,4.433c-0.916,2.053-2.038,4.018-3.373,5.925c-1.338,1.907-2.918,3.48-4.779,4.759
		c-1.861,1.276-4.096,1.631-6.709,1.031c-1.523-0.342-2.701-1.165-3.523-2.464c-0.824-1.297-1.401-2.833-1.726-4.599
		c-0.324-1.765-0.421-3.622-0.281-5.583c0.141-1.959,0.404-3.787,0.788-5.491c0.384-1.704,0.911-3.142,1.571-4.316
		c0.661-1.173,1.324-1.828,1.968-1.936c0.645-0.108,1.055,0.405,1.237,1.54c0.182,1.134,0.283,2.479,0.316,4.017
		c0.033,1.541-0.003,3.044-0.105,4.514c-0.101,1.47-0.144,2.521-0.144,3.167c-0.054,0.968,0.389,1.58,1.317,1.838
		c0.927,0.258,1.961,0.216,3.106-0.13c1.144-0.348,2.19-1.022,3.15-2.043c0.96-1.02,1.445-2.368,1.469-4.062
		C236.596,72.169,235.575,68.701,233.309,65.855L233.309,65.855L233.309,65.855L233.309,65.855L233.309,65.855z"/>
	<path d="M240.516,54.445c-2.095,0.281-3.593,0.764-4.493,1.433c-0.897,0.67-1.293,1.312-1.203,1.944
		c0.094,0.634,0.64,1.172,1.63,1.632c0.993,0.459,2.391,0.614,4.206,0.444c1.362-0.128,2.728-0.26,4.094-0.394
		c-0.198,2.852-0.416,5.901-0.603,9.083c-0.187,3.182-0.184,6.212,0.007,9.116c0.194,2.905,0.594,5.622,1.189,8.196
		c0.596,2.575,1.45,4.789,2.517,6.691c1.067,1.903,2.408,3.412,3.984,4.549c1.577,1.137,3.382,1.689,5.385,1.674
		c3.06-0.025,5.436-0.867,7.193-2.539c1.762-1.675,3.171-3.664,4.316-6.05c1.145-2.388,2.126-4.943,2.972-7.743
		c0.844-2.797,1.654-5.234,2.296-7.17c0.323-0.873,0.245-1.572-0.25-2.08c-0.494-0.506-1.099-0.816-1.816-0.921
		c-0.72-0.105-1.469,0.013-2.241,0.347c-0.775,0.333-1.27,0.938-1.477,1.8c-0.316,0.772-0.953,2.239-1.817,4.286
		c-0.863,2.044-1.762,4.048-2.688,6.016c-0.929,1.969-1.786,3.638-2.623,5.064c-0.835,1.424-1.542,2.118-2.177,2.123
		c-0.736,0-1.444-0.975-2.036-2.99c-0.59-2.021-1.063-4.59-1.298-7.864c-0.237-3.274-0.244-6.927,0.019-11.085
		s0.744-8.226,1.338-12.08c1.724-0.191,3.451-0.386,5.181-0.584c1.842-0.211,3.305-0.708,4.393-1.51
		c1.087-0.802,1.667-1.641,1.731-2.504c0.064-0.862-0.373-1.605-1.316-2.213c-0.945-0.606-2.543-0.732-4.781-0.393
		c-1.414,0.213-2.827,0.425-4.239,0.636c0.36-1.476,0.728-2.975,1.098-4.494c0.448-1.868,0.01-3.269-1.341-4.11
		c-0.677-0.42-1.417-0.694-2.217-0.826c-0.4-0.066-0.814-0.097-1.244-0.093c-0.215,0.002-0.433,0.013-0.655,0.032
		c-0.222,0.02-0.448,0.047-0.677,0.084s-0.457,0.082-0.682,0.136s-0.45,0.116-0.671,0.186c-0.444,0.141-0.88,0.314-1.309,0.52
		c-0.857,0.411-1.682,0.949-2.471,1.606c-1.582,1.32-2.345,3.168-2.338,5.598c0.001,0.508-0.028,1.095-0.085,1.758
		c-0.059,0.667-0.085,1.349-0.084,2.049C243.66,54.021,242.087,54.234,240.516,54.445L240.516,54.445L240.516,54.445L240.516,54.445
		L240.516,54.445z"/>
	<path d="M267.979,74.611c-0.228,2.75-0.312,5.262-0.265,7.59c0.047,2.328,0.242,4.388,0.547,6.235
		c0.306,1.848,0.773,3.323,1.352,4.478c0.578,1.154,1.492,2.155,2.729,3.013c1.235,0.857,2.585,1.501,4.04,1.935
		c1.452,0.434,2.877,0.586,4.27,0.459c1.394-0.128,2.493-0.607,3.326-1.449c1.364-1.229,2.461-2.814,3.369-4.824
		c0.909-2.01,1.73-4.213,2.5-6.67c0.139,1.642,0.473,3.054,0.972,4.275c0.523,1.386,1.401,2.546,2.609,3.513
		c1.207,0.968,2.542,1.684,3.987,2.164c1.444,0.482,2.896,0.747,4.35,0.796c1.454,0.048,2.7-0.208,3.757-0.791
		c1.738-0.917,3.202-2.365,4.513-4.448c1.309-2.084,2.505-4.347,3.596-6.83c1.09-2.48,2.08-4.901,2.912-7.207
		c0.831-2.305,1.44-3.97,1.735-4.856c0.417-1.006,0.409-1.826-0.037-2.44c-0.445-0.615-1.054-0.969-1.827-1.056
		c-0.775-0.087-1.579,0.108-2.404,0.576c-0.827,0.469-1.403,1.266-1.712,2.364c-0.319,1.208-0.951,2.96-1.819,5.148
		c-0.87,2.188-1.726,4.279-2.562,6.283c-0.838,2.004-1.634,3.667-2.433,5.049c-0.8,1.381-1.491,2.05-2.14,2.075
		c-0.967,0.032-1.695-0.688-2.115-2.22c-0.419-1.535-0.636-3.414-0.582-5.731c0.052-2.316,0.329-4.842,0.85-7.633
		c0.52-2.792,1.14-5.276,1.778-7.332c0.204-1.017-0.236-1.929-1.336-2.724c-1.1-0.793-2.424-1.341-3.971-1.635
		c-1.55-0.292-3.06-0.158-4.522,0.39c-1.464,0.55-2.331,1.68-2.573,3.34c-0.548,1.253-1.169,2.865-1.821,4.775
		c-0.655,1.91-1.323,3.854-1.988,5.81c-0.666,1.959-1.301,3.833-1.901,5.635c-0.602,1.804-1.125,3.357-1.605,4.707
		c-0.479,1.35-0.957,2.394-1.466,3.167c-0.508,0.773-1.035,1.078-1.598,0.929c-0.666-0.148-1.114-1.021-1.262-2.687
		c-0.146-1.668-0.141-3.766,0.115-6.419c0.253-2.655,0.614-5.669,1.132-9.17c0.516-3.499,1.069-7.084,1.589-10.698
		c0.213-1.245-0.329-2.127-1.651-2.607c-1.321-0.479-2.854-0.535-4.587-0.18c-1.733,0.354-3.351,1.084-4.83,2.146
		c-1.482,1.065-2.259,2.49-2.327,4.254C268.448,69.025,268.206,71.864,267.979,74.611L267.979,74.611L267.979,74.611L267.979,74.611
		L267.979,74.611z"/>
	<path d="M318.177,71.195c0.562-0.055,1.124-0.11,1.688-0.167c0.562-0.056,1.129-0.167,1.704-0.334
		c-1.143,2.735-2.054,5.762-2.639,8.97c-0.584,3.21-0.598,6.018-0.099,8.547c0.5,2.526,1.52,4.577,2.968,6.258
		c1.45,1.676,3.5,2.51,6.07,2.537c2.255,0.028,4.193-0.454,5.875-1.5c1.68-1.047,3.189-2.45,4.59-4.268
		c1.398-1.815,2.648-3.863,3.767-6.167c1.116-2.304,2.154-4.597,3.074-6.848c0.918-2.248,1.713-4.348,2.342-6.247
		c0.628-1.899,1.049-3.172,1.225-3.762c0.238-1.164,0.148-2.048-0.283-2.633c-0.432-0.583-1.04-0.859-1.821-0.825
		c-0.784,0.036-1.571,0.335-2.359,0.889c-0.791,0.556-1.366,1.431-1.716,2.604c-0.377,1.402-1.159,3.49-2.269,6.141
		c-1.111,2.651-2.261,5.179-3.432,7.58c-1.174,2.403-2.224,4.418-3.198,6.112c-0.974,1.693-1.741,2.51-2.395,2.544
		c-0.974,0.045-1.637-0.635-1.933-2.088c-0.296-1.455-0.353-3.25-0.112-5.459c0.238-2.209,0.692-4.636,1.377-7.33
		c0.686-2.692,1.395-5.133,2.065-7.23c0.67-2.1,0.611-3.433-0.226-3.916c-0.837-0.482-1.937-0.617-3.305-0.401
		c-1.368,0.218-2.832,0.53-4.39,0.936c-1.558,0.408-2.656,0.469-3.297,0.197c1.157-2.308,1.763-4.429,1.784-6.309
		c0.02-1.88-1.156-2.705-3.559-2.406c-1.373,0.168-2.667,0.791-3.873,1.846c-1.207,1.055-2.172,2.247-2.89,3.562
		c-0.717,1.315-1.092,2.653-1.123,4.013c-0.029,1.36,0.425,2.473,1.35,3.367c-0.423,0.973-0.837,1.929-1.241,2.867
		c-0.518,1.002-0.564,1.76-0.152,2.292c0.412,0.534,1.008,0.841,1.782,0.93c0.772,0.088,1.53-0.076,2.28-0.506
		c0.748-0.428,1.261-1.072,1.551-1.948C317.518,72.39,317.792,71.775,318.177,71.195L318.177,71.195L318.177,71.195L318.177,71.195
		L318.177,71.195z"/>
	<path d="M372.649,58.512c0.13-2.714-0.227-5.323-1.06-7.842c-0.835-2.516-2.175-4.68-3.999-6.511
		c-1.829-1.828-4.029-2.677-6.639-2.458c-2.721,0.225-5.369,2.04-8.031,5.468c-2.661,3.422-5.111,7.666-7.232,12.479
		c-2.119,4.816-3.717,9.699-4.624,14.498c-0.909,4.803-0.922,8.916-0.117,12.546c0.806,3.628,2.502,6.426,4.887,8.616
		c2.392,2.18,5.544,3.229,9.37,3.152c3.195-0.072,6.021-0.732,8.566-2.076c2.544-1.347,4.834-3.069,6.909-5.213
		c2.072-2.144,3.932-4.581,5.571-7.308c1.639-2.725,3.119-5.441,4.399-8.092c1.278-2.648,2.309-5.054,3.065-7.172
		c0.754-2.115,1.276-3.545,1.567-4.276c0.081-0.271,0.139-0.526,0.175-0.766c0.009-0.06,0.017-0.119,0.023-0.177
		s0.011-0.115,0.015-0.171c0.007-0.112,0.009-0.221,0.005-0.325c-0.015-0.418-0.117-0.776-0.307-1.072
		c-0.382-0.59-0.896-0.906-1.548-0.945c-0.652-0.036-1.354,0.162-2.108,0.602c-0.756,0.44-1.353,1.21-1.794,2.309
		c-0.308,0.851-0.945,2.236-1.908,4.142c-0.965,1.909-2.114,4-3.423,6.244c-1.312,2.247-2.776,4.558-4.361,6.896
		c-1.587,2.341-3.159,4.337-4.734,6.019c-1.578,1.683-3.156,2.975-4.775,3.914c-1.617,0.941-3.123,1.229-4.548,0.914
		c-1.097-0.236-1.968-0.867-2.59-1.91c-0.625-1.042-1.079-2.344-1.332-3.939c-0.255-1.593-0.312-3.429-0.14-5.549
		c0.169-2.117,0.53-4.357,1.079-6.733c1.243-0.244,2.688-0.569,4.336-0.979c1.646-0.406,3.28-0.957,4.903-1.654
		c1.621-0.697,3.147-1.53,4.578-2.504c1.431-0.972,2.662-2.158,3.699-3.563C371.811,63.414,372.519,61.229,372.649,58.512
		L372.649,58.512L372.649,58.512L372.649,58.512L372.649,58.512z M363.118,51.229c0.275,0.939,0.415,2.127,0.411,3.565
		c-0.003,1.438-0.144,2.856-0.417,4.25c-0.276,1.396-0.68,2.474-1.21,3.242c-0.674,1.022-1.643,1.752-2.912,2.196
		c-1.272,0.447-2.525,0.743-3.762,0.892c1.225-3.855,2.485-7.272,3.714-10.13c1.228-2.861,2.24-4.532,3.056-4.984
		C362.467,49.968,362.839,50.293,363.118,51.229L363.118,51.229L363.118,51.229L363.118,51.229L363.118,51.229z"/>
	<path d="M165.135,117.379c0.413,0.134,0.972,0.214,1.654,0.25c0.341,0.018,0.712,0.025,1.111,0.023
		c0.199-0.001,0.406-0.004,0.618-0.01c0.213-0.006,0.432-0.014,0.658-0.023c1.803-0.078,3.996-0.282,6.399-0.529
		c4.8-0.493,10.479-1.161,15.552-1.428c10.147-0.488,23.021-1.096,40.709-0.42c1.232,0.051,2.706,0.14,4.438,0.283
		c1.731,0.142,3.354,0.149,4.851,0.012c1.496-0.139,2.708-0.461,3.623-0.979c0.456-0.259,0.741-0.618,0.855-1.076
		c0.057-0.229,0.072-0.483,0.044-0.761c-0.014-0.139-0.038-0.284-0.072-0.435c-0.035-0.151-0.079-0.309-0.134-0.472
		c-0.476-1.408-1.426-2.667-2.818-3.754c-1.395-1.087-2.93-2.008-4.614-2.756c-1.685-0.749-3.38-1.322-5.1-1.727
		c-1.72-0.404-3.229-0.668-4.542-0.81c-5.719-0.277-11.104-0.112-16.197,0.318c-5.094,0.432-9.957,1.071-14.585,1.813
		c-4.632,0.743-9.048,1.51-13.258,2.257c-4.214,0.747-8.247,1.384-12.133,1.906c0.255-1.1,0.391-2.365,0.415-3.809
		c0.022-1.444,0.009-2.925-0.042-4.444c-0.05-1.519-0.127-3.02-0.229-4.501c-0.104-1.479-0.212-2.824-0.332-4.019
		c-0.33-1.905-0.675-4.379-1.016-7.496c-0.341-3.119-0.717-7.001-1.104-11.787c-0.39-4.788-0.842-10.561-1.37-17.556
		c-0.535-6.997-1.137-15.448-1.928-25.775c-0.049-1.396-0.347-3.025-0.92-4.913c-0.575-1.886-1.388-3.701-2.467-5.449
		c-1.081-1.749-2.353-3.257-3.824-4.521c-1.472-1.262-3.163-1.995-5.031-2.186c-0.938-0.097-1.559,0.555-1.844,1.941
		c-0.289,1.388-0.347,3.269-0.2,5.616c0.146,2.347,0.444,5.042,0.862,8.05c0.418,3.01,0.924,6.167,1.493,9.449
		c0.707,5.166,1.564,11.368,2.489,18.347c0.927,6.979,1.841,13.881,2.82,20.656c0.98,6.774,2.038,13.054,3.281,18.872
		c1.219,5.875,2.102,13.698,2.116,13.674c0,0-0.867,1.755-1.336,3.664C163.555,114.783,163.481,116.845,165.135,117.379
		L165.135,117.379z"/>
</g>
<g id="Layer_1_copy">
	<path fill="#FFFFFF" d="M59.995,66.874c-0.449,3.705-0.639,7.142-0.567,10.313c0.075,3.172,0.688,5.982,1.85,8.426
		c1.158,2.447,3.213,4.183,6.159,5.21c1.965,0.647,3.801,0.513,5.507-0.408c1.707-0.92,3.292-2.263,4.763-4.028
		c1.468-1.766,2.783-3.814,3.947-6.151c1.162-2.335,2.183-4.593,3.062-6.777c0.876-2.182,1.609-4.177,2.193-5.984
		c0.583-1.807,1-3.039,1.254-3.693c0.379-0.983,0.335-1.819-0.131-2.508c-0.467-0.689-1.057-1.134-1.767-1.334
		c-0.713-0.2-1.465-0.124-2.256,0.227c-0.793,0.354-1.381,1.077-1.765,2.168c-0.28,1.211-0.861,2.961-1.743,5.255
		c-0.885,2.293-1.824,4.583-2.817,6.872c-0.996,2.288-2.003,4.271-3.023,5.945c-1.022,1.677-1.863,2.497-2.527,2.466
		c-0.996-0.047-1.586-1.076-1.768-3.085c-0.184-2.01-0.155-4.398,0.086-7.167c0.239-2.767,0.624-5.641,1.153-8.618
		c0.527-2.977,1.059-5.454,1.596-7.43c0.416-1.758,0.042-3.276-1.117-4.556c-1.162-1.277-2.564-2.065-4.213-2.367
		c-1.649-0.299-3.189,0.017-4.619,0.95c-1.431,0.933-2.207,2.731-2.332,5.394C60.754,59.546,60.444,63.171,59.995,66.874z
		 M76.832,28.809c-2.497-1.173-5.36-1.558-8.594-1.156c-3.236,0.405-5.861,1.42-7.876,3.047c-2.015,1.63-2.859,3.675-2.533,6.135
		c0.223,2.345,1.641,4.025,4.254,5.037c2.613,1.015,5.31,1.418,8.092,1.216c1.447-0.153,2.85-0.476,4.204-0.969
		c1.354-0.491,2.548-1.131,3.583-1.916s1.826-1.691,2.373-2.723c0.547-1.03,0.738-2.159,0.575-3.392
		C80.686,31.743,79.326,29.985,76.832,28.809z"/>
	<path fill="#FFFFFF" d="M81.966,66.493c0.066,4.452,0.6,8.479,1.595,12.083c0.995,3.607,2.492,6.539,4.493,8.801
		c1.999,2.262,4.554,3.357,7.663,3.28c2.438,0.006,4.61-0.783,6.514-2.361c1.903-1.578,3.579-3.61,5.026-6.101
		c1.447-2.488,2.682-5.21,3.709-8.164c1.025-2.954,1.853-5.805,2.48-8.555c0.627-2.749,1.1-5.173,1.422-7.271
		c0.319-2.096,0.55-3.476,0.693-4.137c0.161-1.102-0.104-1.949-0.795-2.539c-0.695-0.588-1.483-0.904-2.367-0.945
		c-0.887-0.042-1.755,0.196-2.611,0.71c-0.856,0.518-1.31,1.33-1.362,2.438c-0.057,1.222-0.382,3.375-0.968,6.459
		c-0.589,3.086-1.318,6.22-2.188,9.403c-0.872,3.185-1.835,6.001-2.891,8.453c-1.058,2.452-2.084,3.654-3.08,3.607
		c-0.887-0.042-1.722-1.137-2.507-3.287c-0.788-2.148-1.354-4.817-1.704-8.002c-0.35-3.185-0.468-6.581-0.354-10.19
		c0.112-3.606,0.684-6.944,1.717-10.009c0.267-0.988-0.252-1.706-1.562-2.159c-1.309-0.45-2.799-0.604-4.469-0.461
		c-1.67,0.146-3.275,0.68-4.815,1.607c-1.541,0.928-2.412,2.333-2.609,4.213C82.242,57.667,81.899,62.044,81.966,66.493z"/>
	<path fill="#FFFFFF" d="M138.037,64.453c0.364-1.976,0.357-4-0.015-6.074c-0.375-2.071-1.166-4.003-2.373-5.792
		c-1.209-1.789-2.823-2.938-4.847-3.449c-2.108-0.532-4.293,0.042-6.553,1.718c-2.262,1.678-4.366,3.979-6.313,6.904
		c-1.949,2.926-3.576,6.179-4.882,9.76s-2.068,7.054-2.29,10.415c-0.222,3.362,0.245,6.312,1.4,8.851
		c1.153,2.538,3.247,4.192,6.282,4.958c2.529,0.639,4.964,0.667,7.308,0.091c2.342-0.579,4.521-1.489,6.54-2.733
		c2.016-1.245,3.845-2.715,5.484-4.416c1.639-1.698,3.092-3.377,4.363-5.036c1.269-1.656,2.3-3.173,3.097-4.546
		c0.793-1.372,1.338-2.292,1.636-2.757c0.36-0.718,0.429-1.352,0.211-1.902c-0.221-0.549-0.572-0.931-1.057-1.144
		c-0.485-0.211-1.034-0.261-1.645-0.145c-0.613,0.115-1.141,0.521-1.585,1.218c-0.319,0.549-0.938,1.405-1.857,2.566
		c-0.922,1.163-2.001,2.418-3.237,3.769c-1.238,1.352-2.619,2.734-4.14,4.148c-1.523,1.415-3.034,2.606-4.533,3.576
		c-1.501,0.97-2.973,1.656-4.418,2.055c-1.446,0.4-2.675,0.292-3.685-0.323c-0.78-0.466-1.285-1.222-1.512-2.27
		c-0.23-1.046-0.28-2.273-0.148-3.679c0.129-1.405,0.428-2.948,0.898-4.629c0.467-1.68,1.053-3.376,1.753-5.087
		c0.947,0.151,2.054,0.295,3.32,0.434c1.264,0.14,2.534,0.167,3.812,0.085c1.275-0.083,2.495-0.292,3.655-0.628
		c1.161-0.335,2.194-0.884,3.105-1.645C136.929,67.861,137.672,66.43,138.037,64.453z M131.573,56.482
		c0.124,0.752,0.122,1.649-0.007,2.696c-0.129,1.046-0.36,2.046-0.688,2.996c-0.331,0.952-0.728,1.637-1.192,2.06
		c-0.594,0.571-1.379,0.845-2.359,0.821c-0.982-0.022-1.936-0.151-2.862-0.385c1.271-2.556,2.484-4.701,3.639-6.432
		c1.153-1.732,2.057-2.65,2.712-2.755C131.195,55.398,131.447,55.731,131.573,56.482z"/>
	<path fill="#FFFFFF" d="M28.875,106.3c2.912,2.056,16.678,2.083,26.658,3.279c9.979,1.196,22.134,2.654,36.469,4.373
		c0.998,0.12,2.175,0.282,3.53,0.492c1.355,0.207,2.659,0.272,3.912,0.196c1.252-0.078,2.34-0.334,3.27-0.769
		c0.927-0.435,1.463-1.237,1.606-2.402c0.154-1.257-0.143-2.407-0.889-3.452c-0.748-1.045-1.69-1.978-2.833-2.798
		c-1.142-0.819-2.369-1.513-3.68-2.08s-2.5-1.006-3.567-1.315c-4.754-1.026-9.422-1.812-14.002-2.361
		c-4.582-0.549-9.115-0.935-13.598-1.152c-4.484-0.22-8.909-0.364-13.271-0.431c-4.365-0.069-8.656-0.174-12.872-0.314
		c0.709-1.28,1.352-2.773,1.93-4.479c0.576-1.706,1.112-3.44,1.604-5.201c0.492-1.761,0.932-3.483,1.323-5.167
		c0.39-1.682,0.712-3.192,0.969-4.526c0.264-2.153,0.67-4.904,1.218-8.252c0.548-3.348,1.232-7.431,2.053-12.248
		c0.819-4.817,1.742-10.463,2.766-16.942c1.022-6.477,2.199-14.006,3.527-22.585c0.232-1.154,0.284-2.514,0.154-4.078
		c-0.132-1.563-0.477-3.062-1.037-4.494c-0.562-1.433-1.31-2.66-2.241-3.682c-0.935-1.021-2.127-1.621-3.578-1.794
		c-0.727-0.087-1.385,0.403-1.975,1.47c-0.592,1.068-1.138,2.526-1.641,4.378c-0.503,1.851-0.974,4.003-1.412,6.453
		c-0.438,2.452-0.828,5.068-1.169,7.848c-0.722,4.375-1.541,9.762-2.463,16.159c-0.922,6.399-1.804,13.029-2.645,19.893
		s-1.527,13.587-2.057,20.167c-0.53,6.581-2.555,15.997-2.555,15.997S25.962,104.244,28.875,106.3z"/>
	<path fill="#FFFFFF" d="M199.992,68.161c-0.554-1.681-1.563-3.288-3.06-4.76c-1.499-1.47-3.447-2.648-5.855-3.516
		c-2.41-0.868-4.981-1.109-7.611-0.904c-2.745,0.222-4.849,1.02-6.285,2.368c-1.444,1.363-2.283,3.002-2.685,5.215
		c-0.402,2.217-0.377,4.813-0.061,8.036c0.04,0.402,0.084,0.808,0.135,1.217c0.05,0.409,0.105,0.821,0.166,1.236
		c0.03,0.208,0.062,0.416,0.095,0.625c0.017,0.104,0.033,0.209,0.051,0.313c0.017,0.105,0.035,0.21,0.052,0.315
		c0.072,0.42,0.149,0.843,0.232,1.268c0.332,1.699,0.755,3.434,1.287,5.173c1.063,3.484,2.621,6.628,4.857,9.106
		c1.115,1.242,2.429,2.173,3.946,2.779c0.758,0.303,1.566,0.525,2.424,0.668c0.428,0.071,0.869,0.123,1.322,0.155
		c0.227,0.016,0.456,0.027,0.688,0.034s0.467,0.008,0.706,0.005c3.175-0.043,5.999-0.708,8.419-1.897
		c2.419-1.192,4.474-2.616,6.169-4.259c1.693-1.645,3.049-3.402,4.083-5.293c1.035-1.889,1.868-3.686,2.52-5.419
		c0.649-1.73,1.108-3.279,1.377-4.656c0.267-1.375,0.468-2.3,0.595-2.771c0.083-0.709-0.121-1.286-0.614-1.727
		c-0.496-0.438-1.065-0.701-1.708-0.787c-0.643-0.085-1.285-0.017-1.92,0.206c-0.637,0.223-1.042,0.678-1.22,1.37
		c-0.105,0.54-0.405,1.404-0.893,2.594c-0.49,1.192-1.107,2.498-1.85,3.93c-0.746,1.435-1.631,2.934-2.665,4.521
		c-1.035,1.589-2.168,3.005-3.401,4.242c-1.235,1.236-2.578,2.23-4.025,2.951c-1.447,0.724-2.877,0.909-4.26,0.514
		c-1.066-0.294-1.936-0.956-2.614-1.972c-0.681-1.013-1.234-2.244-1.673-3.659c-0.441-1.413-0.767-2.966-0.993-4.621
		c-0.227-1.653-0.361-3.285-0.408-4.884c1.09-0.013,2.35-0.057,3.783-0.134c1.431-0.075,2.82-0.252,4.169-0.529
		c1.347-0.277,2.577-0.657,3.688-1.14c1.111-0.482,1.987-1.129,2.629-1.934C200.396,71.196,200.545,69.847,199.992,68.161
		L199.992,68.161L199.992,68.161L199.992,68.161z M188.655,63.383c0.555,0.493,1.042,1.125,1.457,1.913
		c0.415,0.787,0.681,1.581,0.809,2.368c0.126,0.789,0.036,1.398-0.258,1.809c-0.361,0.551-1.081,0.899-2.155,1.034
		c-1.077,0.137-2.172,0.182-3.29,0.137c0.077-2.214,0.245-3.971,0.564-5.391c0.314-1.415,0.795-2.191,1.469-2.396
		C187.625,62.725,188.098,62.892,188.655,63.383L188.655,63.383L188.655,63.383L188.655,63.383L188.655,63.383z"/>
	<path fill="#FFFFFF" d="M230.309,62.855c-2.258-2.858-5.564-4.048-9.804-3.732c-2.787,0.202-5.17,1.225-7.074,2.958
		c-1.909,1.737-3.33,3.781-4.293,6.203c-0.963,2.421-1.407,5.019-1.377,7.879c0.034,2.859,0.65,5.617,1.85,8.252
		c1.203,2.635,3.005,4.913,5.441,6.757c2.432,1.851,5.574,2.843,9.384,3.007c2.952,0.082,5.513-0.302,7.67-1.124
		c2.159-0.823,3.99-1.887,5.517-3.205c1.525-1.316,2.797-2.789,3.841-4.444c1.041-1.655,1.926-3.277,2.646-4.875
		s1.286-3.091,1.683-4.465c0.395-1.372,0.697-2.346,0.873-2.877c0.155-0.796,0.005-1.439-0.458-1.92
		c-0.465-0.479-1.024-0.755-1.681-0.827c-0.656-0.07-1.33,0.037-2.013,0.32c-0.687,0.283-1.158,0.823-1.414,1.612
		c-0.247,0.875-0.867,2.381-1.781,4.433c-0.916,2.053-2.038,4.018-3.373,5.925c-1.338,1.907-2.918,3.48-4.779,4.759
		c-1.861,1.276-4.096,1.631-6.709,1.031c-1.523-0.342-2.701-1.165-3.523-2.464c-0.824-1.297-1.401-2.833-1.726-4.599
		c-0.324-1.765-0.421-3.622-0.281-5.583c0.141-1.959,0.404-3.787,0.788-5.491c0.384-1.704,0.911-3.142,1.571-4.316
		c0.661-1.173,1.324-1.828,1.968-1.936c0.645-0.108,1.055,0.405,1.237,1.54c0.182,1.134,0.283,2.479,0.316,4.017
		c0.033,1.541-0.003,3.044-0.105,4.514c-0.101,1.47-0.144,2.521-0.144,3.167c-0.054,0.968,0.389,1.58,1.317,1.838
		c0.927,0.258,1.961,0.216,3.106-0.13c1.144-0.348,2.19-1.022,3.15-2.043c0.96-1.02,1.445-2.368,1.469-4.062
		C233.596,69.169,232.575,65.701,230.309,62.855L230.309,62.855L230.309,62.855L230.309,62.855L230.309,62.855z"/>
	<path fill="#FFFFFF" d="M237.516,51.445c-2.095,0.281-3.593,0.764-4.493,1.433c-0.897,0.67-1.293,1.312-1.203,1.944
		c0.094,0.634,0.64,1.172,1.63,1.632c0.993,0.459,2.391,0.614,4.206,0.444c1.362-0.128,2.728-0.26,4.094-0.394
		c-0.198,2.852-0.416,5.901-0.603,9.083c-0.187,3.182-0.184,6.212,0.007,9.116c0.194,2.905,0.594,5.622,1.189,8.196
		c0.596,2.575,1.45,4.789,2.517,6.691c1.067,1.903,2.408,3.412,3.984,4.549c1.577,1.137,3.382,1.689,5.385,1.674
		c3.06-0.025,5.436-0.867,7.193-2.539c1.762-1.675,3.171-3.664,4.316-6.05c1.145-2.388,2.126-4.943,2.972-7.743
		c0.844-2.797,1.654-5.234,2.296-7.17c0.323-0.873,0.245-1.572-0.25-2.08c-0.494-0.506-1.099-0.816-1.816-0.921
		c-0.72-0.105-1.469,0.013-2.241,0.347c-0.775,0.333-1.27,0.938-1.477,1.8c-0.316,0.772-0.953,2.239-1.817,4.286
		c-0.863,2.044-1.762,4.048-2.688,6.016c-0.929,1.969-1.786,3.638-2.623,5.064c-0.835,1.424-1.542,2.118-2.177,2.123
		c-0.736,0-1.444-0.975-2.036-2.99c-0.59-2.021-1.063-4.59-1.298-7.864c-0.237-3.274-0.244-6.927,0.019-11.085
		s0.744-8.226,1.338-12.08c1.724-0.191,3.451-0.386,5.181-0.584c1.842-0.211,3.305-0.708,4.393-1.51
		c1.087-0.802,1.667-1.641,1.731-2.504c0.064-0.862-0.373-1.605-1.316-2.213c-0.945-0.606-2.543-0.732-4.781-0.393
		c-1.414,0.213-2.827,0.425-4.239,0.636c0.36-1.476,0.728-2.975,1.098-4.494c0.448-1.868,0.01-3.269-1.341-4.11
		c-0.677-0.42-1.417-0.694-2.217-0.826c-0.4-0.066-0.814-0.097-1.244-0.093c-0.215,0.002-0.433,0.013-0.655,0.032
		c-0.222,0.02-0.448,0.047-0.677,0.084s-0.457,0.082-0.682,0.136s-0.45,0.116-0.671,0.186c-0.444,0.141-0.88,0.314-1.309,0.52
		c-0.857,0.411-1.682,0.949-2.471,1.606c-1.582,1.32-2.345,3.168-2.338,5.598c0.001,0.508-0.028,1.095-0.085,1.758
		c-0.059,0.667-0.085,1.349-0.084,2.049C240.66,51.021,239.087,51.234,237.516,51.445L237.516,51.445L237.516,51.445L237.516,51.445
		L237.516,51.445z"/>
	<path fill="#FFFFFF" d="M264.979,71.611c-0.228,2.75-0.312,5.262-0.265,7.59c0.047,2.328,0.242,4.388,0.547,6.235
		c0.306,1.848,0.773,3.323,1.352,4.478c0.578,1.154,1.492,2.155,2.729,3.013c1.235,0.857,2.585,1.501,4.04,1.935
		c1.452,0.434,2.877,0.586,4.27,0.459c1.394-0.128,2.493-0.607,3.326-1.449c1.364-1.229,2.461-2.814,3.369-4.824
		c0.909-2.01,1.73-4.213,2.5-6.67c0.139,1.642,0.473,3.054,0.972,4.275c0.523,1.386,1.401,2.546,2.609,3.513
		c1.207,0.968,2.542,1.684,3.987,2.164c1.444,0.482,2.896,0.747,4.35,0.796c1.454,0.048,2.7-0.208,3.757-0.791
		c1.738-0.917,3.202-2.365,4.513-4.448c1.309-2.084,2.505-4.347,3.596-6.83c1.09-2.48,2.08-4.901,2.912-7.207
		c0.831-2.305,1.44-3.97,1.735-4.856c0.417-1.006,0.409-1.826-0.037-2.44c-0.445-0.615-1.054-0.969-1.827-1.056
		c-0.775-0.087-1.579,0.108-2.404,0.576c-0.827,0.469-1.403,1.266-1.712,2.364c-0.319,1.208-0.951,2.96-1.819,5.148
		c-0.87,2.188-1.726,4.279-2.562,6.283c-0.838,2.004-1.634,3.667-2.433,5.049c-0.8,1.381-1.491,2.05-2.14,2.075
		c-0.967,0.032-1.695-0.688-2.115-2.22c-0.419-1.535-0.636-3.414-0.582-5.731c0.052-2.316,0.329-4.842,0.85-7.633
		c0.52-2.792,1.14-5.276,1.778-7.332c0.204-1.017-0.236-1.929-1.336-2.724c-1.1-0.793-2.424-1.341-3.971-1.635
		c-1.55-0.292-3.06-0.158-4.522,0.39c-1.464,0.55-2.331,1.68-2.573,3.34c-0.548,1.253-1.169,2.865-1.821,4.775
		c-0.655,1.91-1.323,3.854-1.988,5.81c-0.666,1.959-1.301,3.833-1.901,5.635c-0.602,1.804-1.125,3.357-1.605,4.707
		c-0.479,1.35-0.957,2.394-1.466,3.167c-0.508,0.773-1.035,1.078-1.598,0.929c-0.666-0.148-1.114-1.021-1.262-2.687
		c-0.146-1.668-0.141-3.766,0.115-6.419c0.253-2.655,0.614-5.669,1.132-9.17c0.516-3.499,1.069-7.084,1.589-10.698
		c0.213-1.245-0.329-2.127-1.651-2.607c-1.321-0.479-2.854-0.535-4.587-0.18c-1.733,0.354-3.351,1.084-4.83,2.146
		c-1.482,1.065-2.259,2.49-2.327,4.254C265.448,66.025,265.206,68.864,264.979,71.611L264.979,71.611L264.979,71.611L264.979,71.611
		L264.979,71.611z"/>
	<path fill="#FFFFFF" d="M315.177,68.195c0.562-0.055,1.124-0.11,1.688-0.167c0.562-0.056,1.129-0.167,1.704-0.334
		c-1.143,2.735-2.054,5.762-2.639,8.97c-0.584,3.21-0.598,6.018-0.099,8.547c0.5,2.526,1.52,4.577,2.968,6.258
		c1.45,1.676,3.5,2.51,6.07,2.537c2.255,0.028,4.193-0.454,5.875-1.5c1.68-1.047,3.189-2.45,4.59-4.268
		c1.398-1.815,2.648-3.863,3.767-6.167c1.116-2.304,2.154-4.597,3.074-6.848c0.918-2.248,1.713-4.348,2.342-6.247
		c0.628-1.899,1.049-3.172,1.225-3.762c0.238-1.164,0.148-2.048-0.283-2.633c-0.432-0.583-1.04-0.859-1.821-0.825
		c-0.784,0.036-1.571,0.335-2.359,0.889c-0.791,0.556-1.366,1.431-1.716,2.604c-0.377,1.402-1.159,3.49-2.269,6.141
		c-1.111,2.651-2.261,5.179-3.432,7.58c-1.174,2.403-2.224,4.418-3.198,6.112c-0.974,1.693-1.741,2.51-2.395,2.544
		c-0.974,0.045-1.637-0.635-1.933-2.088c-0.296-1.455-0.353-3.25-0.112-5.459c0.238-2.209,0.692-4.636,1.377-7.33
		c0.686-2.692,1.395-5.133,2.065-7.23c0.67-2.1,0.611-3.433-0.226-3.916c-0.837-0.482-1.937-0.617-3.305-0.401
		c-1.368,0.218-2.832,0.53-4.39,0.936c-1.558,0.408-2.656,0.469-3.297,0.197c1.157-2.308,1.763-4.429,1.784-6.309
		c0.02-1.88-1.156-2.705-3.559-2.406c-1.373,0.168-2.667,0.791-3.873,1.846c-1.207,1.055-2.172,2.247-2.89,3.562
		c-0.717,1.315-1.092,2.653-1.123,4.013c-0.029,1.36,0.425,2.473,1.35,3.367c-0.423,0.973-0.837,1.929-1.241,2.867
		c-0.518,1.002-0.564,1.76-0.152,2.292c0.412,0.534,1.008,0.841,1.782,0.93c0.772,0.088,1.53-0.076,2.28-0.506
		c0.748-0.428,1.261-1.072,1.551-1.948C314.518,69.39,314.792,68.775,315.177,68.195L315.177,68.195L315.177,68.195L315.177,68.195
		L315.177,68.195z"/>
	<path fill="#FFFFFF" d="M369.649,55.512c0.13-2.714-0.227-5.323-1.06-7.842c-0.835-2.516-2.175-4.68-3.999-6.511
		c-1.829-1.828-4.029-2.677-6.639-2.458c-2.721,0.225-5.369,2.04-8.031,5.468c-2.661,3.422-5.111,7.666-7.232,12.479
		c-2.119,4.816-3.717,9.699-4.624,14.498c-0.909,4.803-0.922,8.916-0.117,12.546c0.806,3.628,2.502,6.426,4.887,8.616
		c2.392,2.18,5.544,3.229,9.37,3.152c3.195-0.072,6.021-0.732,8.566-2.076c2.544-1.347,4.834-3.069,6.909-5.213
		c2.072-2.144,3.932-4.581,5.571-7.308c1.639-2.725,3.119-5.441,4.399-8.092c1.278-2.648,2.309-5.054,3.065-7.172
		c0.754-2.115,1.276-3.545,1.567-4.276c0.081-0.271,0.139-0.526,0.175-0.766c0.009-0.06,0.017-0.119,0.023-0.177
		s0.011-0.115,0.015-0.171c0.007-0.112,0.009-0.221,0.005-0.325c-0.015-0.418-0.117-0.776-0.307-1.072
		c-0.382-0.59-0.896-0.906-1.548-0.945c-0.652-0.036-1.354,0.162-2.108,0.602c-0.756,0.44-1.353,1.21-1.794,2.309
		c-0.308,0.851-0.945,2.236-1.908,4.142c-0.965,1.909-2.114,4-3.423,6.244c-1.312,2.247-2.776,4.558-4.361,6.896
		c-1.587,2.341-3.159,4.337-4.734,6.019c-1.578,1.683-3.156,2.975-4.775,3.914c-1.617,0.941-3.123,1.229-4.548,0.914
		c-1.097-0.236-1.968-0.867-2.59-1.91c-0.625-1.042-1.079-2.344-1.332-3.939c-0.255-1.593-0.312-3.429-0.14-5.549
		c0.169-2.117,0.53-4.357,1.079-6.733c1.243-0.244,2.688-0.569,4.336-0.979c1.646-0.406,3.28-0.957,4.903-1.654
		c1.621-0.697,3.147-1.53,4.578-2.504c1.431-0.972,2.662-2.158,3.699-3.563C368.811,60.414,369.519,58.229,369.649,55.512
		L369.649,55.512L369.649,55.512L369.649,55.512L369.649,55.512z M360.118,48.229c0.275,0.939,0.415,2.127,0.411,3.565
		c-0.003,1.438-0.144,2.856-0.417,4.25c-0.276,1.396-0.68,2.474-1.21,3.242c-0.674,1.022-1.643,1.752-2.912,2.196
		c-1.272,0.447-2.525,0.743-3.762,0.892c1.225-3.855,2.485-7.272,3.714-10.13c1.228-2.861,2.24-4.532,3.056-4.984
		C359.467,46.968,359.839,47.293,360.118,48.229L360.118,48.229L360.118,48.229L360.118,48.229L360.118,48.229z"/>
	<path fill="#FFFFFF" d="M162.135,114.379c0.413,0.134,0.972,0.214,1.654,0.25c0.341,0.018,0.712,0.025,1.111,0.023
		c0.199-0.001,0.406-0.004,0.618-0.01c0.213-0.006,0.432-0.014,0.658-0.023c1.803-0.078,3.996-0.282,6.399-0.529
		c4.8-0.493,10.479-1.161,15.552-1.428c10.147-0.488,23.021-1.096,40.709-0.42c1.232,0.051,2.706,0.14,4.438,0.283
		c1.731,0.142,3.354,0.149,4.851,0.012c1.496-0.139,2.708-0.461,3.623-0.979c0.456-0.259,0.741-0.618,0.855-1.076
		c0.057-0.229,0.072-0.483,0.044-0.761c-0.014-0.139-0.038-0.284-0.072-0.435c-0.035-0.151-0.079-0.309-0.134-0.472
		c-0.476-1.408-1.426-2.667-2.818-3.754c-1.395-1.087-2.93-2.008-4.614-2.756c-1.685-0.749-3.38-1.322-5.1-1.727
		c-1.72-0.404-3.229-0.668-4.542-0.81c-5.719-0.277-11.104-0.112-16.197,0.318c-5.094,0.432-9.957,1.071-14.585,1.813
		c-4.632,0.743-9.048,1.51-13.258,2.257c-4.214,0.747-8.247,1.384-12.133,1.906c0.255-1.1,0.391-2.365,0.415-3.809
		c0.022-1.444,0.009-2.925-0.042-4.444c-0.05-1.519-0.127-3.02-0.229-4.501c-0.104-1.479-0.212-2.824-0.332-4.019
		c-0.33-1.905-0.675-4.379-1.016-7.496c-0.341-3.119-0.717-7.001-1.104-11.787c-0.39-4.788-0.842-10.561-1.37-17.556
		c-0.535-6.997-1.137-15.448-1.928-25.775c-0.049-1.396-0.347-3.025-0.92-4.913c-0.575-1.886-1.388-3.701-2.467-5.449
		c-1.081-1.749-2.353-3.257-3.824-4.521c-1.472-1.262-3.163-1.995-5.031-2.186c-0.938-0.097-1.559,0.555-1.844,1.941
		c-0.289,1.388-0.347,3.269-0.2,5.616c0.146,2.347,0.444,5.042,0.862,8.05c0.418,3.01,0.924,6.167,1.493,9.449
		c0.707,5.166,1.564,11.368,2.489,18.347c0.927,6.979,1.841,13.881,2.82,20.656c0.98,6.774,2.038,13.054,3.281,18.872
		c1.219,5.875,2.102,13.698,2.116,13.674c0,0-0.867,1.755-1.336,3.664C160.555,111.783,160.481,113.845,162.135,114.379
		L162.135,114.379z"/>
</g>
</svg>
